<mxfile host="app.diagrams.net" modified="2023-09-15T22:31:51.126Z" agent="Mozilla/5.0 (Windows NT 10.0; Win64; x64; rv:109.0) Gecko/20100101 Firefox/117.0" etag="meZtFOlcply-U7WWwC4C" version="21.7.5" type="github">
  <diagram name="Page-1" id="e3a06f82-3646-2815-327d-82caf3d4e204">
    <mxGraphModel dx="1468" dy="883" grid="1" gridSize="10" guides="1" tooltips="1" connect="1" arrows="1" fold="1" page="1" pageScale="1.5" pageWidth="1169" pageHeight="826" background="none" math="0" shadow="0">
      <root>
        <mxCell id="0" style=";html=1;" />
        <mxCell id="1" style=";html=1;" parent="0" />
        <mxCell id="6a7d8f32e03d9370-59" value="" style="whiteSpace=wrap;html=1;fontSize=14;strokeColor=#6c8ebf;verticalAlign=top;labelBackgroundColor=none;fillColor=#dae8fc;gradientColor=#7ea6e0;" parent="1" vertex="1">
          <mxGeometry x="210" y="360" width="460" height="790" as="geometry" />
        </mxCell>
        <mxCell id="6a7d8f32e03d9370-57" value="" style="whiteSpace=wrap;html=1;fontSize=14;strokeColor=#666666;verticalAlign=top;labelBackgroundColor=none;fillColor=#f5f5f5;gradientColor=#b3b3b3;" parent="1" vertex="1">
          <mxGeometry x="700" y="600" width="240" height="550" as="geometry" />
        </mxCell>
        <mxCell id="6a7d8f32e03d9370-8" value="Porto Alegre" style="verticalLabelPosition=bottom;aspect=fixed;html=1;verticalAlign=top;strokeColor=none;shape=mxgraph.citrix.xenapp_server;fontSize=25;labelBackgroundColor=none;" parent="1" vertex="1">
          <mxGeometry x="409.9999999999999" y="983" width="76" height="89" as="geometry" />
        </mxCell>
        <mxCell id="6a7d8f32e03d9370-9" value="Rio de Janeiro" style="verticalLabelPosition=bottom;aspect=fixed;html=1;verticalAlign=top;strokeColor=none;shape=mxgraph.citrix.xenapp_server;fontSize=25;labelBackgroundColor=none;" parent="1" vertex="1">
          <mxGeometry x="410.0000000000001" y="819" width="76" height="89" as="geometry" />
        </mxCell>
        <mxCell id="rtnhop9AJSBLxQXy1A22-5" value="" style="edgeStyle=orthogonalEdgeStyle;rounded=0;orthogonalLoop=1;jettySize=auto;html=1;" edge="1" parent="1" source="6a7d8f32e03d9370-10" target="6a7d8f32e03d9370-9">
          <mxGeometry relative="1" as="geometry" />
        </mxCell>
        <mxCell id="6a7d8f32e03d9370-10" value="São Paulo" style="verticalLabelPosition=bottom;aspect=fixed;html=1;verticalAlign=top;strokeColor=none;shape=mxgraph.citrix.xenapp_server;fontSize=25;labelBackgroundColor=none;" parent="1" vertex="1">
          <mxGeometry x="409.9999999999999" y="654" width="76" height="89" as="geometry" />
        </mxCell>
        <mxCell id="4ffv8L0pnq8NrU6VO82j-26" value="" style="image;html=1;image=img/lib/clip_art/computers/Virus_128x128.png" parent="1" vertex="1">
          <mxGeometry x="342" y="670" width="60" height="50" as="geometry" />
        </mxCell>
        <mxCell id="4ffv8L0pnq8NrU6VO82j-27" value="" style="image;html=1;image=img/lib/clip_art/computers/Virus_128x128.png" parent="1" vertex="1">
          <mxGeometry x="342" y="826.5" width="60" height="50" as="geometry" />
        </mxCell>
        <mxCell id="4ffv8L0pnq8NrU6VO82j-28" value="" style="image;html=1;image=img/lib/clip_art/computers/Virus_128x128.png" parent="1" vertex="1">
          <mxGeometry x="352" y="983" width="60" height="50" as="geometry" />
        </mxCell>
        <mxCell id="rtnhop9AJSBLxQXy1A22-1" value="Porto Alegre" style="verticalLabelPosition=bottom;aspect=fixed;html=1;verticalAlign=top;strokeColor=none;shape=mxgraph.citrix.xenapp_server;fontSize=25;labelBackgroundColor=none;" vertex="1" parent="1">
          <mxGeometry x="791.9999999999999" y="660.5" width="76" height="89" as="geometry" />
        </mxCell>
        <mxCell id="rtnhop9AJSBLxQXy1A22-3" value="São Paulo" style="verticalLabelPosition=bottom;aspect=fixed;html=1;verticalAlign=top;strokeColor=none;shape=mxgraph.citrix.xenapp_server;fontSize=25;labelBackgroundColor=none;" vertex="1" parent="1">
          <mxGeometry x="791.9999999999999" y="819" width="76" height="89" as="geometry" />
        </mxCell>
        <mxCell id="rtnhop9AJSBLxQXy1A22-4" value="" style="shape=doubleArrow;whiteSpace=wrap;html=1;fillColor=#008a00;strokeColor=#005700;fontColor=#ffffff;" vertex="1" parent="1">
          <mxGeometry x="520" y="682.5" width="260" height="45" as="geometry" />
        </mxCell>
        <mxCell id="rtnhop9AJSBLxQXy1A22-8" value="" style="shape=doubleArrow;whiteSpace=wrap;html=1;fillColor=#008a00;strokeColor=#005700;fontColor=#ffffff;" vertex="1" parent="1">
          <mxGeometry x="520" y="1005.5" width="260" height="45" as="geometry" />
        </mxCell>
        <mxCell id="rtnhop9AJSBLxQXy1A22-10" value="São Paulo" style="verticalLabelPosition=bottom;aspect=fixed;html=1;verticalAlign=top;strokeColor=none;shape=mxgraph.citrix.xenapp_server;fontSize=25;labelBackgroundColor=none;" vertex="1" parent="1">
          <mxGeometry x="791.9999999999999" y="983" width="76" height="89" as="geometry" />
        </mxCell>
        <mxCell id="rtnhop9AJSBLxQXy1A22-11" value="" style="shape=singleArrow;whiteSpace=wrap;html=1;fillColor=#1ba1e2;fontColor=#ffffff;strokeColor=#006EAF;" vertex="1" parent="1">
          <mxGeometry x="540" y="833.5" width="240" height="60" as="geometry" />
        </mxCell>
        <mxCell id="rtnhop9AJSBLxQXy1A22-13" value="" style="group;fontSize=25;" vertex="1" connectable="0" parent="1">
          <mxGeometry x="230" y="422" width="125.99999999999989" height="89" as="geometry" />
        </mxCell>
        <mxCell id="6a7d8f32e03d9370-11" value="&lt;font style=&quot;font-size: 25px;&quot;&gt;GTB MAIN&lt;/font&gt;" style="verticalLabelPosition=bottom;aspect=fixed;html=1;verticalAlign=top;strokeColor=none;shape=mxgraph.citrix.xenapp_server;fontSize=14;labelBackgroundColor=none;" parent="rtnhop9AJSBLxQXy1A22-13" vertex="1">
          <mxGeometry x="49.999999999999886" width="76" height="89" as="geometry" />
        </mxCell>
        <mxCell id="4ffv8L0pnq8NrU6VO82j-48" value="" style="image;sketch=0;aspect=fixed;html=1;points=[];align=center;fontSize=12;image=img/lib/mscae/Security_Baselines.svg;" parent="rtnhop9AJSBLxQXy1A22-13" vertex="1">
          <mxGeometry y="12" width="44" height="50" as="geometry" />
        </mxCell>
        <mxCell id="rtnhop9AJSBLxQXy1A22-14" value="" style="group" vertex="1" connectable="0" parent="1">
          <mxGeometry x="520" y="422" width="128.0000000000001" height="89" as="geometry" />
        </mxCell>
        <mxCell id="6a7d8f32e03d9370-12" value="&lt;font style=&quot;font-size: 25px;&quot;&gt;GTB BKP&lt;/font&gt;" style="verticalLabelPosition=bottom;aspect=fixed;html=1;verticalAlign=top;strokeColor=none;shape=mxgraph.citrix.xenapp_server;fontSize=14;labelBackgroundColor=none;" parent="rtnhop9AJSBLxQXy1A22-14" vertex="1">
          <mxGeometry x="40.000000000000114" width="76" height="89" as="geometry" />
        </mxCell>
        <mxCell id="4ffv8L0pnq8NrU6VO82j-47" value="" style="image;sketch=0;aspect=fixed;html=1;points=[];align=center;fontSize=12;image=img/lib/mscae/Security_Baselines.svg;" parent="rtnhop9AJSBLxQXy1A22-14" vertex="1">
          <mxGeometry y="15" width="44" height="50" as="geometry" />
        </mxCell>
        <mxCell id="rtnhop9AJSBLxQXy1A22-16" value="" style="shape=doubleArrow;whiteSpace=wrap;html=1;fillColor=#008a00;fontColor=#ffffff;strokeColor=#005700;" vertex="1" parent="1">
          <mxGeometry x="380" y="440" width="122" height="60" as="geometry" />
        </mxCell>
      </root>
    </mxGraphModel>
  </diagram>
</mxfile>
